<?xml version="1.0" encoding="UTF-8" standalone="no"?>
<svg
   version="1.1"
   style="display: block;"
   viewBox="0 0 2048 1807"
   width="1088"
   height="960"
   preserveAspectRatio="none"
   id="svg75"
   sodipodi:docname="svg-ai-create-this-svg-image-without-background-2026-02-09.svg"
   inkscape:version="1.4.3 (0d15f75, 2025-12-25)"
   xmlns:inkscape="http://www.inkscape.org/namespaces/inkscape"
   xmlns:sodipodi="http://sodipodi.sourceforge.net/DTD/sodipodi-0.dtd"
   xmlns="http://www.w3.org/2000/svg"
   xmlns:svg="http://www.w3.org/2000/svg">
  <sodipodi:namedview
     id="namedview75"
     pagecolor="#ffffff"
     bordercolor="#000000"
     borderopacity="0.25"
     inkscape:showpageshadow="2"
     inkscape:pageopacity="0.0"
     inkscape:pagecheckerboard="0"
     inkscape:deskcolor="#d1d1d1"
     inkscape:zoom="0.52395833"
     inkscape:cx="544.89066"
     inkscape:cy="480"
     inkscape:window-width="1366"
     inkscape:window-height="705"
     inkscape:window-x="-8"
     inkscape:window-y="-8"
     inkscape:window-maximized="1"
     inkscape:current-layer="svg75" />
  <defs
     id="defs6">
    <linearGradient
       id="Gradient1"
       gradientUnits="userSpaceOnUse"
       x1="1335.7"
       y1="1003.72"
       x2="1330.96"
       y2="1004.82"
       gradientTransform="matrix(2.1289345,0,0,2.0901002,-1146.89,-688.81504)">
      <stop
         class="stop0"
         offset="0"
         stop-opacity="0"
         stop-color="rgb(255,255,255)"
         id="stop1" />
      <stop
         class="stop1"
         offset="1"
         stop-opacity="0.027451"
         stop-color="rgb(189,190,194)"
         id="stop2" />
    </linearGradient>
    <linearGradient
       id="Gradient2"
       gradientUnits="userSpaceOnUse"
       x1="940.965"
       y1="1337.73"
       x2="937.121"
       y2="1342.83">
      <stop
         class="stop0"
         offset="0"
         stop-opacity="0"
         stop-color="rgb(255,255,255)"
         id="stop3" />
      <stop
         class="stop1"
         offset="1"
         stop-opacity="0.0431373"
         stop-color="rgb(236,244,248)"
         id="stop4" />
    </linearGradient>
    <linearGradient
       id="Gradient3"
       gradientUnits="userSpaceOnUse"
       x1="795.495"
       y1="525.103"
       x2="789.608"
       y2="520.758"
       gradientTransform="matrix(2.1289345,0,0,2.0901002,-1146.89,-688.81504)">
      <stop
         class="stop0"
         offset="0"
         stop-opacity="0"
         stop-color="rgb(253,251,254)"
         id="stop5" />
      <stop
         class="stop1"
         offset="1"
         stop-opacity="0.0196078"
         stop-color="rgb(242,253,253)"
         id="stop6" />
    </linearGradient>
  </defs>
  <path
     fill="#255588"
     d="M 323.89938,582.8228 C 494.23332,572.68999 640.69127,700.02516 651.04005,867.24989 661.39087,1034.4746 531.71533,1178.284 361.38566,1188.4732 191.01128,1198.6666 44.487366,1071.319 34.134352,904.05233 23.783477,736.78584 153.52288,592.9556 323.89938,582.8228 Z M 372.124,1154.9543 C 523.58706,1139.1197 633.23571,1005.65 616.93019,856.96869 600.62257,708.28732 464.54532,600.79556 313.12058,616.97713 161.94707,633.13359 52.677375,766.46109 68.95733,914.8958 c 16.279969,148.4348 151.95484,255.868 303.16667,240.0585 z"
     id="path6"
     style="stroke-width:2.10943" />
  <path
     fill="#255588"
     d="m 319.10502,637.6712 c 8.66476,2.42242 12.86302,6.78029 19.89276,12.38176 12.34569,1.92916 22.72638,3.30654 35.04014,4.49371 15.54335,1.4986 51.36268,-3.02229 62.66093,5.24615 l -2.23538,2.97422 c -25.11929,10.70967 -62.85892,6.32464 -89.08101,1.88736 10.81286,17.97486 21.22761,36.83801 36.1557,51.6631 30.70562,-2.96167 42.66384,-3.36089 72.16237,-13.24079 0.25759,-10.82463 -1.47535,-21.79347 7.579,-29.0294 l 3.77673,2.56037 c 5.08389,9.39082 3.74479,18.47439 3.65112,29.42443 22.58587,17.39591 43.89226,25.24423 72.56048,21.69315 13.1036,42.67357 32.31724,66.25827 49.00594,105.27631 8.14531,19.04488 -14.44268,64.03016 -14.6726,85.18826 -0.15543,14.17926 1.87133,30.41929 3.05927,44.96219 -4.52825,-0.45355 -23.81426,-2.30744 -27.07366,-1.52368 -37.39687,9.0063 -67.29137,30.58441 -89.14701,59.06626 l 0.43644,52.1543 c 17.61268,-20.2071 37.53524,-41.0455 60.75766,-55.0365 9.22255,-5.5576 36.99663,-22.20944 47.29853,-19.93124 0.17458,11.67734 -18.98157,18.72944 -31.85737,26.76584 -38.13774,23.8041 -54.9776,45.1441 -80.36941,80.3559 -41.9102,-46.8976 -104.9884,-43.8293 -162.48029,-36.0458 l -28.42554,42.7844 c 35.87042,0.4827 66.43767,-1.043 102.1761,3.7015 12.13066,1.8058 20.8082,2.2866 31.45075,8.2998 l 0.34701,2.7632 c -19.21576,6.8116 -98.94436,-4.753 -124.96633,-2.4016 -31.81692,2.876 -45.72951,-20.6419 -58.82885,-45.0312 -19.68413,-36.652 -47.207,-72.8254 -79.77331,-99.8357 -14.81312,-12.44663 -29.49001,-24.06539 -42.218905,-38.05867 -7.670554,-42.33498 11.687865,-61.64754 18.381225,-102.46511 2.79955,-17.08235 -1.34974,-77.65973 12.21157,-84.72008 l 2.02674,2.61262 c 10.61061,46.02192 -6.3868,120.3961 -28.33399,162.9484 20.09928,-4.82814 40.1134,-9.98858 60.03596,-15.47715 22.05576,-47.65439 29.64116,-90.50766 16.14158,-141.65449 -7.57475,-28.69499 -3.44248,-22.61072 -25.81121,-37.08674 l -0.85156,-4.36623 2.69949,-3.53017 c 7.99201,-2.7464 15.47948,-1.22689 24.1187,-0.51208 26.518,-13.67134 46.66624,-27.37613 67.36162,-48.59274 8.23258,-8.44191 17.15708,-17.3332 29.04079,-19.95418 l 1.20072,2.78401 c -14.08503,29.84036 -57.81973,60.76548 -87.82493,74.89247 21.07431,7.43448 42.01878,15.21802 62.82485,23.34433 45.58475,-27.31343 56.17408,-42.38096 75.02579,-90.30068 -4.78798,-9.0167 -6.53158,-11.50392 -5.12861,-21.42981 z M 105.60908,933.73184 c 64.23634,51.41228 100.11528,88.72896 137.83361,162.98186 l 8.35393,14.6306 c 8.93088,-14.1416 21.46392,-32.5992 29.66458,-46.6447 -24.90854,-63.3656 -59.25251,-107.08 -117.57254,-145.63817 -19.49466,4.62532 -38.92331,9.51623 -58.27958,14.67041 z m 70.39322,-32.33178 c 18.62392,-3.96698 33.67974,-8.04895 51.85233,-13.22622 39.05956,-15.93279 23.4715,-93.73467 15.97765,-124.77893 l -62.62474,-25.18989 c 20.65493,58.93456 19.44357,106.00365 -5.20524,163.19504 z m 2.39291,13.09231 c 49.4509,32.9986 82.00018,66.32311 106.27216,120.48803 l 6.26121,16.4804 30.32454,-49.4705 c -16.14584,-41.02238 -36.69006,-77.19154 -78.76845,-100.76788 -2.24816,-1.25832 -2.4057,-1.09531 -4.66237,-1.31262 -18.76656,4.82605 -40.62647,11.01484 -59.42709,14.58257 z m 125.71147,140.43803 c 44.32868,-6.3602 73.44186,-7.1126 116.42717,7.0792 10.11883,4.1258 19.67774,7.7709 29.33034,12.9084 -1.55413,-15.5607 -2.53982,-33.2304 -4.49631,-48.3564 -35.95558,-19.9857 -65.95228,-23.568 -107.27276,-19.3418 -10.57442,9.746 -26.07732,35.1554 -33.98844,47.7106 z M 254.10652,882.33209 c 12.57775,-3.64095 31.84248,-8.56528 43.63677,-12.86456 6.52093,-1.93128 11.65379,-2.03165 14.89616,-7.85669 11.23652,-20.18416 3.16786,-51.54399 -0.198,-73.02395 l -54.28144,-20.15902 c 9.81652,47.27179 14.10206,67.3702 -4.05349,113.90422 z m 3.78312,11.88006 c 28.67675,23.0664 52.1227,41.84383 65.90755,77.08918 l 6.36764,14.27546 1.90966,0.69593 c 9.96341,-14.53246 22.99676,-32.44456 31.16547,-47.61459 -7.4321,-13.24907 -34.23965,-53.25572 -49.25077,-57.20391 -19.39459,3.09956 -37.14351,7.91099 -56.09955,12.75793 z m 5.14989,-137.95284 38.46345,12.97116 17.90648,4.80932 c 22.99888,-17.64254 29.94985,-26.2851 43.87947,-51.5983 -4.51122,-7.82743 -24.10593,-43.92764 -28.73849,-48.84565 -17.7766,39.83732 -30.69711,61.95266 -71.51091,82.66347 z m 81.37852,236.78536 c 28.90029,-2.28656 49.436,-1.01791 77.53368,7.33623 7.91324,3.2731 16.32041,6.5671 24.05696,10.1223 -0.41941,-18.16085 -0.81752,-32.7476 -2.7804,-50.93979 -23.26925,-9.61034 -40.10274,-14.20851 -65.70957,-14.28799 -11.15134,15.70085 -22.75405,31.58352 -33.10067,47.76925 z m 42.72134,-62.48143 c 12.59051,2.4809 25.16614,5.03502 37.72685,7.66431 8.88404,3.0433 9.61852,5.09362 16.5695,2.8363 5.79708,-9.8193 1.43489,-27.80462 -0.0234,-40.05052 -10.93634,-1.60303 -19.28815,-2.4078 -29.79869,-6.03413 -8.49233,11.6754 -17.17199,23.15633 -24.47423,35.58404 z m 139.04497,-29.81734 16.74407,17.28509 18.89216,19.38565 c 0.83455,-35.16808 6.05896,-58.86137 22.87541,-90.68739 1.31995,-2.49551 0.97931,-1.33129 1.1624,-3.96071 -13.41017,0.35957 -34.34185,0.23206 -46.8685,2.87597 -6.49538,20.21758 -9.19699,34.35913 -12.80554,55.10139 z M 462.37807,756.34709 c 14.02329,7.66231 21.4192,11.71292 36.2962,17.16182 l 13.42932,-16.04779 c 3.39991,-4.17394 8.39438,-10.77029 12.18389,-14.14998 -24.45507,-5.49279 -36.76457,-10.06593 -58.66918,-22.47694 z m -78.03611,-28.50478 16.78452,25.61835 c 16.07133,18.04175 24.71268,10.63234 45.8019,2.91778 2.1481,-11.70038 5.24995,-26.00294 5.62252,-37.61762 l -2.25879,-0.54343 c -25.54084,7.0102 -39.37252,7.99255 -65.95015,9.62492 z m 72.96498,204.6731 15.61148,-11.5813 c 11.38766,-6.50021 21.36172,-12.34418 33.33912,-17.78471 -5.0477,-4.32225 -22.59226,-19.87471 -27.13541,-22.53754 l -22.05789,16.46582 c 0.92183,12.45498 0.55353,22.97856 0.2427,35.43773 z M 372.59876,734.37596 c -9.67388,19.18921 -22.17924,34.91512 -39.91753,47.68354 9.81653,3.21249 16.52053,5.61192 26.09862,9.59774 24.44869,8.77215 21.77899,-4.42264 36.392,-21.54893 -3.37862,-5.41753 -19.65645,-32.34221 -22.57309,-35.73235 z m -2.71651,76.73175 c -13.80828,-5.75195 -27.78048,-11.738 -41.77397,-16.98206 3.66817,22.58562 3.81293,45.71679 -1.14961,68.14979 l 34.69311,-8.96232 5.8418,-2.93248 c 2.43124,-8.93726 1.93946,-28.47337 2.38867,-39.27293 z m 67.98539,46.20163 c -5.65019,7.88176 -11.06833,15.92247 -16.2459,24.11147 2.08635,3.10791 0.8388,2.28028 3.00818,3.30029 l 11.74746,1.7201 c 7.91326,-6.5566 3.35946,-19.54449 1.49026,-29.13186 z m -50.44511,-54.24851 33.90542,14.41332 3.93427,1.40247 c -1.16241,-6.72804 -17.85325,-32.14783 -22.61355,-36.73979 z m 112.63555,-10.41497 c -17.46791,21.53848 -19.74162,37.34596 14.15315,35.98948 l 4.20039,-0.98659 c -2.46105,-6.95584 -14.03607,-30.7349 -18.35354,-35.00289 z m -63.49548,16.11467 3.98111,4.222 c 7.00419,-6.14489 9.59724,-33.3141 4.69856,-40.26996 l -6.23777,0.45773 c -9.05223,0.66465 -13.29307,-0.54132 -19.75653,4.11332 -0.007,9.50787 10.99169,22.16134 17.31463,31.47691 z m 99.56389,19.15578 19.59898,0.81509 19.95237,-0.15884 1.23478,-1.93754 c -23.5588,-33.83868 -26.16675,-32.49474 -42.60211,-75.68666 -10.07839,12.50507 -13.69544,17.87245 -21.75772,31.74026 8.01757,17.24124 13.9275,28.84338 23.5737,45.22769 z m -42.46586,15.52531 -6.94246,23.40902 c 4.99875,4.69645 20.26746,20.58341 25.23001,21.40686 l 0.64932,-1.58215 11.6325,-43.11052 z m 24.28476,72.9695 c -25.14059,7.92156 -38.74662,15.51904 -57.52595,33.93912 -1.86281,18.31762 -1.72018,30.82051 -0.1618,49.30754 7.55133,-7.30708 13.91046,-13.88874 22.46452,-20.11512 26.19867,-17.77427 41.23746,-23.66418 71.96863,-32.91494 -7.28947,-6.53363 -29.44102,-27.3093 -36.7454,-30.2166 z m -145.07626,-51.7592 c -14.66835,3.59709 -29.72418,7.49712 -44.43086,10.77652 17.74255,13.60447 26.55634,25.02901 39.51303,43.15008 l 4.13013,6.20771 c 7.68333,-4.72999 18.95391,-26.7345 25.21937,-35.8516 -8.28795,-7.99035 -16.6206,-15.83869 -24.43167,-24.28271 z"
     id="path7"
     style="stroke-width:2.10943" />
  <path
     fill="#255588"
     d="m 799.14144,751.95789 c 81.78945,-4.268 168.49877,2.50811 250.79496,-0.89248 42.749,-1.76822 50.3492,57.15169 60.2914,90.2652 11.5601,39.0702 23.3757,78.0673 35.4467,116.98909 22.4604,-67.80697 40.9607,-138.1932 63.57,-206.44125 l 56.5232,0.79007 c 20.672,53.55673 46.1766,148.99283 63.8894,207.4278 7.3661,-27.96346 53.5853,-188.14036 67.2956,-200.97148 12.6671,-11.86133 51.2222,-7.41986 67.8916,-7.16278 -22.8647,71.80742 -48.5396,143.16137 -71.9792,214.82255 -9.0693,27.7002 -18.6282,55.56119 -29.1876,82.73239 -21.8856,0.6397 -45.5806,0.2759 -67.6151,0.2989 -20.0971,-61.93376 -39.6407,-124.03903 -58.6308,-186.30732 -12.0072,37.28744 -23.3544,77.26891 -35.1487,115.06002 -7.877,23.7959 -15.307,47.7254 -22.3113,71.7762 -22.7157,0.1421 -45.4314,0.083 -68.1685,-0.1735 -9.2183,-23.3799 -19.3306,-56.98241 -27.4632,-81.32163 -16.9463,-51.04865 -34.2119,-101.98859 -51.8182,-152.81768 -67.29571,-1.41918 -135.42577,0.89247 -202.7619,-0.93428 -13.54004,0.0668 -23.37569,1.08895 -33.72025,9.61868 -10.08894,8.32068 -3.07204,37.73878 6.48908,40.15076 63.01003,15.90355 149.35543,-18.21726 203.21107,25.48882 17.2869,14.03714 27.6123,45.34474 27.5059,67.35551 -4.7477,105.61282 -95.30406,94.15692 -166.981,94.07752 l -137.01821,0.2592 -0.37892,-66.27707 150.18139,-0.0626 c 18.76661,0.0381 40.79683,3.40066 59.05877,-0.0958 9.30564,-1.78288 18.30676,-6.18462 23.41834,-14.31514 3.61486,-5.74986 4.97097,-12.15179 3.14861,-18.73358 -11.37488,-41.0871 -151.05638,-0.59986 -205.6103,-35.40001 -19.46694,-12.41936 -30.30322,-32.23559 -34.74853,-54.08138 -5.2605,-25.86916 -2.30127,-53.9308 13.27816,-76.00435 14.87707,-21.07866 36.66449,-30.85614 61.54753,-35.11995 z"
     id="path8"
     style="stroke-width:2.10943" />
  <path
     fill="#255588"
     d="m 1862.721,1184.9702 c 16.5631,-2.5938 30.9547,-4.1802 47.6668,-5.7812 -66.0395,207.5261 -243.5713,395.1146 -438.0708,494.8123 -220.9622,111.4861 -478.07359,131.8436 -714.36194,56.5583 -55.26923,-17.0972 -135.73871,-51.8973 -185.5132,-81.4095 -2.51215,-18.3093 -4.93275,-35.6153 -6.44004,-54.0918 76.67149,43.0352 123.06727,67.9701 209.07204,95.413 l -16.44177,-45.6478 c -39.3151,-15.5711 -98.71232,-37.8934 -134.76369,-57.2269 -6.291,-22.1341 -30.25217,-115.0391 -45.2718,-127.1408 -37.09455,-29.9302 -79.14102,-68.4026 -119.33956,-95.0451 -10.1912,-6.7553 -10.485,-4.337 -10.95123,-16.8463 l 2.75058,-4.3495 c 15.19847,-3.4696 30.56725,17.3646 41.5419,25.3425 9.98471,7.261 23.16493,22.8678 32.91332,29.1611 81.26569,52.4573 84.4442,88.2817 109.48047,177.1945 39.04257,19.1244 93.05367,43.286 133.77583,56.9762 7.67486,21.1727 15.64552,42.22 23.91007,63.1627 175.05379,48.3649 330.32342,51.3538 506.40762,1.275 26.0368,-7.608 51.6692,-16.4908 76.8119,-26.6069 7.9197,-3.177 37.7248,-15.9685 44.3031,-17.4733 l -0.042,-3.8458 c -1.3625,-4.4519 -1.8097,-5.5179 -1.7246,-10.2624 0.1281,-8.0259 32.8709,-18.1838 44.0052,-24.0361 81.4318,-42.8053 143.0644,-98.2557 209.0826,-159.6419 -3.4489,-22.0923 -0.2767,-30.6199 21.8004,-38.1234 l 6.0888,1.2331 13.7741,9.4265 c 12.5181,-5.936 25.6111,-25.353 34.2758,-36.4409 51.3286,-65.7191 84.5614,-130.1193 115.2605,-206.5856 z"
     id="path9"
     style="stroke-width:2.10943" />
  <path
     fill="#7fadd5"
     d="m 1420.1581,1649.4009 c 63.2293,-23.8898 135.9963,-77.1665 189.1132,-118.9894 11.3047,-8.8829 62.9526,-60.9682 69.531,-62.4939 0.1281,5.7267 -5.6842,9.9488 -9.7292,14.4843 -43.047,48.1768 -189.3262,154.9809 -248.8725,170.8448 z"
     id="path10"
     style="stroke-width:2.10943" />
  <path
     fill="#255588"
     d="m 965.30692,0.0025388 c 48.43748,-3.2939997 128.37898,-2.3220943 175.85428,4.7612496 19.7779,30.4841106 37.1285,57.4861176 58.8225,86.7328866 49.4764,11.740095 100.7625,27.534975 149.3447,42.686115 15.7328,40.68172 34.9571,80.27657 50.2003,121.21328 49.9448,2.96794 58.418,-8.98744 104.4456,-29.15482 41.3864,23.38822 75.5132,67.1591 112.7695,95.96904 13.1782,-0.25499 27.804,-3.24174 36.2558,9.85274 31.7424,49.16124 -75.5132,66.69092 -47.4539,-0.22573 -36.5539,-34.54518 -63.3783,-58.73391 -102.5508,-90.66855 -57.0342,24.50015 -42.5787,31.78416 -112.0245,26.34362 -18.2449,-36.7983 -35.5106,-83.49323 -53.3724,-122.42762 -46.1128,-16.21081 -98.889,-28.38147 -146.2153,-40.89489 -14.4767,-18.317645 -27.74,-39.676372 -40.5562,-59.281517 -40.6626,-1.899905 -76.4074,-6.159521 -118.7733,-6.236853 C 921.84258,38.47292 835.78685,57.910857 732.4356,89.835044 709.94554,97.82968 630.5788,127.24366 616.12546,141.85555 c 2.30989,3.78726 4.71134,7.52227 7.20219,11.19875 -1.95649,8.4252 -34.84853,19.3397 -45.93603,25.98414 -73.13954,43.84402 -124.63635,86.25216 -185.80701,142.96912 1.15388,29.20915 -7.61521,53.46894 -41.2098,33.08837 -63.58701,79.59102 -94.36502,130.38463 -137.02249,222.30305 -16.0841,7.77727 -36.49419,16.17111 -53.12543,23.46974 C 186.14667,508.78517 267.75087,384.42213 330.82693,312.95533 490.98882,129.29196 719.61292,16.526873 965.30692,0.0025388 Z M 1634.4566,360.54064 c 4.0876,-1.89781 6.7914,-5.81465 7.0893,-10.23522 0.2982,-4.42056 -1.8521,-8.65719 -5.6415,-11.07335 -3.7683,-2.41616 -8.601,-2.63353 -12.5821,-0.5706 -6.0036,3.09962 -8.388,10.34181 -5.3436,16.29651 3.0231,5.95679 10.3466,8.43565 16.4779,5.58266 z"
     id="path11"
     style="stroke-width:2.10943" />
  <path
     fill="#7fadd5"
     d="m 602.03404,147.12678 1.73721,2.75266 c -6.08449,5.98187 -14.37243,9.66045 -22.02169,13.5982 -28.7981,14.82925 -55.51623,32.76859 -82.71976,50.26273 l -0.51946,-1.71389 c 23.86748,-19.43793 76.06257,-54.04163 103.5237,-64.8997 z"
     id="path12"
     style="stroke-width:2.10943" />
  <path
     fill="#255588"
     d="m 1683.5286,650.4877 c 3.2359,-23.80834 5.8333,-47.69191 7.8131,-71.62982 0.9581,-11.64186 1.1922,-28.76606 3.1083,-39.4402 4.5772,19.24565 9.708,89.68621 11.8369,112.52055 24.7807,-23.62022 50.3706,-46.23093 74.8959,-70.08733 -11.0705,21.75795 -46.2405,62.80333 -62.9738,81.73545 14.3489,0.90084 28.6979,1.88737 43.047,2.95959 6.0248,7.06662 10.9853,11.18413 20.6294,12.55314 -22.2474,2.51857 -41.4078,4.27007 -63.7616,5.53667 84.3057,55.33959 174.679,104.62833 257.5372,162.08515 6.5145,4.51672 13.9232,12.98163 15.818,20.82161 -7.4939,13.84279 -60.6108,24.66317 -77.6423,29.71072 17.3509,27.63951 73.0012,91.166 62.0798,114.62957 -44.1755,94.9825 -113.8341,-48.49037 -129.1199,-66.00334 -14.5832,16.31533 -40.982,51.51265 -56.949,60.01934 l -4.4283,0.1985 c -19.0113,-23.988 -61.3772,-262.29708 -76.5138,-311.86172 -4.3431,25.68316 -5.1308,59.72671 -10.7086,82.87039 l -5.1946,-0.56434 c -3.6617,-26.60487 -5.8972,-53.38324 -6.6848,-80.22013 -23.5887,20.99715 -47.9436,41.16034 -73.0224,60.45406 19.6286,-24.71962 37.9801,-47.72326 58.8862,-71.46888 -31.9766,-4.77588 -71.8516,-7.08544 -104.1474,-9.28214 l -2.1502,-2.33256 -0.9581,1.94798 c -2.576,-0.42638 -1.4902,0.11707 -3.3211,-1.54876 2.1503,1.57593 0.9154,1.04296 3.7043,1.50487 4.6837,-5.33602 93.8861,-8.96443 109.1505,-10.69504 -21.7152,-20.24471 -56.1187,-61.88369 -72.405,-86.61793 26.7394,21.66388 55.6715,48.93134 81.4743,72.2046 z m 275.3564,356.2262 c -0.4472,-18.34271 -58.4606,-87.35776 -73.3418,-121.02723 25.3343,-10.33132 50.3919,-14.76451 74.3424,-24.46464 -64.5919,-43.22743 -157.6903,-103.63551 -224.6239,-142.47584 18.1385,82.18273 36.3196,178.41515 57.4812,258.40746 10.6446,-12.69528 41.28,-54.47425 51.9035,-57.37959 39.0446,4.2827 68.211,147.41894 114.2386,86.93984 z"
     id="path13"
     style="stroke-width:2.10943" />
  <path
     fill="#255588"
     d="m 699.24973,171.63112 c 83.3904,-41.44042 175.54348,-61.80427 268.03705,-70.05598 13.00566,8.81605 21.16598,19.95628 31.57648,31.44555 75.00224,-1.61146 162.90594,3.59498 235.69434,22.62743 13.7528,-15.0968 32.5301,-21.08283 47.752,-3.6096 4.5345,5.12701 6.6422,11.88222 5.8333,18.61652 -2.6186,23.62022 -33.6586,37.20588 -48.5611,16.59957 -10.4318,-14.43841 -4.045,-18.77955 -28.4426,-22.97856 -55.6077,-10.41078 -132.6538,-21.9335 -189.2196,-16.75633 13.9658,22.17805 27.5058,47.67727 41.4717,68.7413 8.8775,0.60614 17.9894,1.03252 26.7819,2.31793 5.301,-9.34903 12.3691,-23.14577 23.4396,-26.538 5.5991,-1.65537 11.6452,-1.01998 16.776,1.76404 6.0674,3.36297 11.7943,9.26124 16.4141,14.3339 31.6998,-34.16894 57.2044,-48.81428 75.7687,5.56594 l 2.4483,1.21436 c 24.3976,11.80487 36.2984,0.87784 45.9212,16.43235 0.4895,8.47537 1.2986,4.48119 -3.0231,12.30443 -7.5365,4.7926 -3.5766,3.67648 -12.1349,3.96283 -6.6211,-3.1665 -7.3236,-5.48861 -11.1769,-11.59378 -17.6915,-7.54526 -31.4018,-5.60356 -37.0861,-22.20941 -2.5761,-7.55154 -4.194,-13.51668 -9.9847,-18.76283 -17.3508,-6.28702 -65.1028,41.83335 -74.6618,53.80127 4.045,5.43217 4.705,7.82743 2.4908,13.69434 -11.5175,7.40313 -48.05,3.16023 -63.2931,2.38479 -17.0741,18.1797 -44.0689,54.42204 -62.25006,67.03997 -9.04799,6.27448 -49.6553,23.55752 -63.35925,29.79437 -0.93672,4.00464 -3.68517,16.1732 -5.74173,19.01156 -30.13727,41.56583 -77.91476,-23.2461 -30.85885,-40.94506 9.56315,-3.59706 22.07913,2.40362 31.27182,8.60285 12.96738,-5.57221 42.94278,-17.48159 53.72156,-24.1741 25.33431,-15.73637 46.30431,-48.50704 68.82851,-70.474 l 1.9373,-1.87691 c 19.5223,-1.7954 49.2636,3.26683 65.0815,-2.35972 -10.6233,-5.46979 -17.0315,-8.09704 -25.6323,-16.47416 l -2.3844,-2.28239 c -11.4538,-0.26963 -24.8447,-0.26545 -36.1068,-1.02416 -7.7919,-11.28027 -44.5161,-79.84601 -51.6267,-81.20038 -3.4063,-0.64794 -7.98348,-0.62285 -11.13427,-1.59267 -8.40925,-2.57709 -24.39757,-24.97042 -31.28477,-31.88866 -69.72038,2.03159 -148.14825,24.56913 -213.0147,48.87909 -9.64409,3.61378 -40.63497,12.21455 -42.22324,23.76653 -3.57876,71.04878 -112.52267,14.58471 -47.35594,-25.73331 13.1163,-8.11378 28.8151,-0.90293 39.31075,9.62909 z m -20.57615,34.08535 c 7.80675,-3.01392 11.96034,-11.39732 9.55675,-19.28745 -2.4036,-7.89012 -10.56378,-12.65554 -18.77506,-10.96675 -5.96096,1.22689 -10.71066,5.64327 -12.28176,11.4203 -1.57125,5.77705 0.3022,11.93029 4.84752,15.91194 4.54532,3.97955 10.98534,5.1103 16.65255,2.92196 z m 448.28762,21.64298 c 5.3436,-4.50625 11.1556,-8.18065 12.8587,-14.6286 -5.0668,-7.71456 -14.647,-6.51693 -23.4821,-6.68623 -6.1526,7.57033 -13.6891,16.54523 -4.5984,24.66736 7.2383,0.57686 8.6647,-0.55178 15.2218,-3.35253 z m 139.2536,-49.67958 c 4.9818,-3.72456 6.1101,-10.65742 2.5121,-15.71128 -3.5766,-5.05596 -10.5808,-6.43334 -15.8818,-3.12262 -3.6192,2.26567 -5.6842,6.29539 -5.3649,10.50067 0.298,4.20319 2.9166,7.90476 6.8338,9.64373 3.9172,1.73896 8.4732,1.23524 11.9008,-1.3105 z M 910.67207,377.16112 c 6.09517,-1.99395 9.36519,-8.48372 7.28096,-14.44886 -2.08422,-5.96516 -8.72439,-9.11911 -14.78114,-7.02275 -5.98454,2.07339 -9.14814,8.49417 -7.08939,14.38617 2.05861,5.89408 8.56893,9.0564 14.58957,7.08544 z"
     id="path21"
     style="stroke-width:2.10943" />
  <path
     fill="#255588"
     d="m 1260.7009,1309.3061 c 46.3894,1.2374 46.3042,51.3245 1.5753,54.6122 -20.3525,37.6177 -45.0695,75.6157 -68.1045,111.8789 -28.7406,4.1175 -55.2458,7.6916 -84.1142,10.4505 -15.2858,13.084 -71.3619,77.9607 -88.6063,97.0434 15.9031,19.9813 37.5332,43.1396 54.7562,62.2222 119.5183,-13.4811 200.652,-30.9125 311.1651,-82.8098 -1.6818,-21.528 0.149,-33.8805 22.6731,-41.2795 41.7484,-13.6901 54.3943,55.8057 14.8174,61.6162 -11.6879,1.7139 -21.2254,-2.5917 -29.72,-10.1161 -64.1022,36.4514 -160.7132,61.2191 -232.735,75.9751 -30.9122,4.5147 -61.9521,8.1514 -93.077,10.9313 -20.1824,-22.9075 -39.9814,-46.1285 -59.3974,-69.663 -69.78862,-3.4487 -139.53461,-14.6934 -206.88559,-33.0027 -23.78867,-6.4793 -49.81062,-18.5392 -74.28068,-21.967 -7.00206,3.595 -14.65975,9.3219 -22.91585,9.6563 -20.95289,0.7943 -34.3034,-32.7727 -18.27052,-45.9822 7.1661,-5.915 19.13925,-8.4858 28.39789,-6.772 15.27083,2.8635 12.11159,15.3832 19.26052,25.4366 5.60766,6.312 31.95962,12.9586 41.10544,16.0102 80.87616,26.9205 148.90621,38.7296 233.97209,41.6556 17.4146,-19.5841 77.2802,-90.0414 94.5673,-101.8296 26.782,-2.2364 53.4788,-5.6224 79.9627,-10.158 22.2687,-33.2744 44.5799,-69.9639 65.9757,-104.0032 -13.4761,-22.0277 -13.093,-36.3637 9.8783,-49.9054 z m 165.2266,255.6338 c 7.43,-4.2011 9.9847,-13.5229 5.6842,-20.7964 -4.2792,-7.2735 -13.7955,-9.7399 -21.1828,-5.497 -7.3662,4.222 -9.8571,13.4811 -5.5991,20.7337 4.2791,7.2318 13.7103,9.7191 21.0977,5.5597 z m -155.3697,-217.4916 c 5.9824,-1.1642 10.0272,-6.6611 9.2608,-12.5928 -0.745,-5.9339 -6.0461,-10.2854 -12.1348,-9.9656 -4.343,0.2257 -8.1751,2.8111 -9.9635,6.7008 -1.7883,3.8897 -1.2135,8.4315 1.4903,11.7715 2.725,3.3379 7.0894,4.9138 11.3472,4.0861 z m -555.7285,178.8458 c 4.658,-3.5533 5.57987,-10.0953 2.0736,-14.7353 -3.50641,-4.661 -10.15503,-5.706 -14.96862,-2.3617 -3.21048,2.2154 -4.94127,5.9776 -4.52393,9.8024 0.41515,3.8459 2.91453,7.1691 6.53158,8.674 3.61486,1.5049 7.78127,0.9823 10.88737,-1.3794 z"
     id="path22"
     style="stroke-width:2.10943" />
  <path
     fill="#255588"
     d="m 953.97251,143.14305 c 2.01392,-0.12541 4.03002,-0.21318 6.04612,-0.26336 56.74887,-1.18299 14.37457,83.73569 -20.12053,33.42907 -78.91539,10.23313 -165.50549,41.89815 -236.06272,77.29817 -0.44281,20.99298 -14.11052,60.09875 -21.90024,79.75823 -12.82268,9.89663 -16.96769,12.19574 -31.65523,19.08889 -34.3865,-9.22361 -81.27842,-23.23356 -113.87453,-36.3364 -53.25743,46.27273 -106.53614,99.78348 -144.50357,159.24265 -1.15814,1.55503 -9.92084,16.93817 -9.22893,18.15042 12.7949,22.40588 7.4534,44.2307 -22.54329,43.13758 -11.1982,-1.76405 -27.07153,-16.32578 -22.16008,-28.08886 9.25661,-22.16341 27.90182,-17.59863 39.31077,-36.53913 26.34132,-38.77763 48.59933,-68.70577 81.61698,-102.67616 28.61926,-29.44325 67.49787,-62.39786 93.12812,-93.37106 -5.50544,-14.81881 -5.37771,-37.71585 11.12794,-43.92763 45.0525,-16.9528 79.47952,39.21238 28.86622,61.68095 -10.79797,4.79469 -22.07919,0.0272 -32.11923,-4.15512 l -14.15104,15.03409 c 27.03534,10.92914 74.73625,25.74586 103.17876,32.99641 23.12241,-8.83485 27.63366,-22.84061 33.29228,-46.92901 2.81235,-7.14188 -1.56252,-42.31618 3.14876,-44.63618 56.35719,-27.76699 128.88787,-56.87164 190.36713,-70.71228 26.39037,-5.94006 53.20217,-6.66742 63.84893,-14.45931 4.62625,-8.99997 5.90142,-11.99508 14.38738,-17.72196 z M 589.14974,275.79753 c 8.34968,-3.77681 12.18602,-13.3411 8.70094,-21.69106 -3.48505,-8.35204 -13.05249,-12.52388 -21.70022,-9.46607 -5.93334,2.10055 -10.21676,7.22548 -11.15562,13.34947 -0.93673,6.124 1.62438,12.25845 6.66783,15.97673 5.04344,3.71829 11.7581,4.42265 17.48707,1.83093 z M 367.8044,521.14812 c 4.68579,-1.98978 6.92117,-7.26937 5.05196,-11.93447 -1.86708,-4.66302 -7.16812,-7.03319 -11.97951,-5.35484 -3.2594,1.13493 -5.62677,3.92521 -6.17816,7.27773 -0.55141,3.35044 0.80259,6.73221 3.5319,8.81604 2.72929,2.08592 6.39956,2.54365 9.57381,1.19554 z M 966.30537,175.23654 c 3.14657,-1.19554 5.29469,-4.08197 5.49907,-7.3885 0.2022,-3.30654 -1.57751,-6.42706 -4.55595,-7.98418 -2.97625,-1.55923 -6.60611,-1.26869 -9.28847,0.73989 -3.41485,2.55828 -4.39422,7.19203 -2.29501,10.8727 2.09908,3.67858 6.63582,5.28168 10.64036,3.76009 z"
     id="path23"
     style="stroke-width:2.10943" />
  <path
     fill="#255588"
     d="m 1254.7612,28.292046 c 25.1852,0.426378 33.0623,7.07499 36.0428,31.514528 16.0522,4.85949 31.9766,10.084733 47.7946,15.669489 214.405,76.648157 388.9351,233.932367 485.0138,437.123547 48.9442,-0.53716 53.6917,61.74782 -5.7481,56.90298 -22.0557,-15.01528 -22.6093,-30.74537 -6.6849,-50.87514 C 1697.388,292.23408 1528.0098,153.53503 1286.461,72.999292 c -15.5413,13.357825 -37.8312,19.047087 -49.7958,-1.728509 -4.045,-7.150234 -4.7689,-15.656947 -1.9586,-23.358961 4.13,-11.67321 9.3672,-14.137438 20.0546,-19.619776 z m 581.71,525.802324 c 4.3217,-2.05248 7.1746,-6.2285 7.4513,-10.92286 0.2981,-4.69437 -2.0013,-9.17973 -6.0249,-11.73173 -4.045,-2.55202 -9.1544,-2.77775 -13.391,-0.58524 -6.4081,3.31072 -8.9203,11.05454 -5.6629,17.40009 3.2786,6.34345 11.113,8.94353 17.6275,5.83974 z M 1266.3851,67.847192 c 4.1727,-1.899906 6.9404,-5.879454 7.2171,-10.371079 0.2981,-4.493713 -1.9586,-8.780502 -5.8333,-11.175764 -3.8747,-2.39525 -8.7925,-2.518564 -12.7736,-0.317695 -5.8758,3.231299 -8.0899,10.444234 -5.0243,16.325776 3.0657,5.883631 10.3254,8.33114 16.4141,5.538762 z"
     id="path24"
     style="stroke-width:2.10943" />
  <path
     fill="#255588"
     d="m 528.78804,1181.7995 c 56.90856,-0.8151 29.01313,38.4871 25.07034,56.069 -2.04803,9.1254 16.83561,59.8689 21.48521,74.5894 11.79856,-2.4454 23.80575,-4.0526 35.7363,-5.8167 19.87999,15.9161 39.33627,31.6504 59.9018,46.7179 8.18797,-2.552 58.5436,-15.9579 59.92314,-17.1785 2.93375,-2.598 4.20673,-18.675 8.25174,-23.9672 3.27438,-4.3203 8.32205,-7.004 13.79769,-7.3384 60.44471,-3.8436 23.59492,92.5037 -18.86457,40.966 -18.74945,6.1721 -37.06262,14.9985 -56.33799,18.3218 -12.50112,2.155 -14.24677,-0.039 -24.6168,-7.6685 -15.54552,-12.1916 -31.33369,-24.0801 -47.35819,-35.6592 -28.94712,2.6272 -59.44624,10.3543 -91.10563,13.1175 -9.97406,-6.193 -25.71114,-19.3 -35.75332,-23.1019 -8.75844,-0.9553 -19.5713,4.4205 -27.40152,-0.8361 -46.00415,-30.8854 22.66464,-74.3825 36.84547,-36.0187 10.9704,29.6836 -4.52399,22.5564 28.58947,46.8476 15.30916,-1.6471 28.58094,-3.2774 43.74747,-5.8043 -8.39226,-21.6053 -17.26992,-54.0291 -24.23366,-76.878 -34.05231,-8.557 -37.8993,-38.1694 -7.67695,-56.3617 z"
     id="path25"
     style="stroke-width:2.10943" />
  <path
     fill="#255588"
     d="m 1346.0499,1614.4754 c 64.0596,-4.5356 37.0009,85.6941 -17.2657,45.2088 -1.2773,-0.9615 -73.3205,20.5248 -80.8996,22.4477 -57.6728,14.568 -116.7933,22.9075 -176.3183,24.8931 -70.8935,2.3617 -141.13135,-6.0404 -210.33234,-19.8978 -13.31005,-2.6753 -41.16294,-4.9745 -49.8703,-12.9585 -6.24845,-16.3029 -25.73242,-33.7761 -18.03209,-49.5146 l 4.09188,-1.3168 c 19.0496,6.1867 20.68679,22.3641 24.64664,39.1895 22.8371,8.3604 60.81722,14.2753 85.44261,18.5391 150.109,26.0009 274.3111,9.8653 417.2478,-36.2633 2.3419,-17.6403 6.8978,-21.2562 21.2894,-30.3272 z m 14.1787,38.8758 c 4.0662,-2.1736 6.5784,-6.3539 6.5145,-10.8894 -0.042,-4.5355 -2.6611,-8.6739 -6.77,-10.7431 -4.1089,-2.0693 -9.048,-1.7349 -12.8375,0.8779 -5.3862,3.7203 -6.8977,10.9311 -3.4276,16.4281 3.4702,5.5179 10.7085,7.3989 16.5206,4.3265 z"
     id="path27"
     style="stroke-width:2.10943" />
  <path
     fill="#255588"
     d="m 1328.8906,360.47376 c 19.565,-2.77147 52.2015,22.32435 69.4671,33.52938 29.4006,-8.58822 82.6453,-21.52802 112.4079,-23.40703 16.7547,27.53707 45.7934,96.85734 59.5887,127.98729 18.6282,3.71201 29.0387,7.21294 32.8283,27.32388 6.6209,35.2558 -57.1832,38.50591 -58.0135,4.68182 -0.2767,-11.29491 4.5772,-18.1985 12.0711,-26.16596 l -12.6885,-29.66897 c -13.3697,-30.14761 -28.3361,-60.89507 -42.4296,-90.8274 -35.2126,7.10634 -70.2336,15.18458 -104.9991,24.22009 -20.4803,-10.30838 -39.8749,-23.02037 -59.3122,-35.18893 -12.9864,4.43101 -45.3037,13.47069 -54.5006,24.01734 -6.3442,8.7596 -9.7932,25.72077 -25.3982,22.39124 -28.6129,-6.11355 -35.3617,-37.72213 -11.8369,-54.85885 11.4963,-8.3834 22.5241,5.77912 32.7643,9.46606 14.5193,5.22943 36.6603,-7.28818 50.0512,-13.49996 z m 250.6608,178.36914 c 3.9811,-2.0253 6.4933,-6.04247 6.5145,-10.43586 0.022,-4.39339 -2.427,-8.43983 -6.3867,-10.51112 -3.9386,-2.07129 -8.7286,-1.82675 -12.433,0.63539 -5.3011,3.51346 -6.8764,10.4714 -3.598,15.86177 3.2574,5.39037 10.2402,7.34253 15.9032,4.44982 z M 1262.2762,400.9172 c 3.4702,-1.45681 5.876,-4.66928 6.2379,-8.37085 0.3618,-3.70366 -1.3625,-7.3049 -4.5133,-9.38665 -3.1296,-2.08383 -7.1746,-2.31791 -10.5383,-0.60821 -4.9391,2.51229 -6.9829,8.40847 -4.5985,13.34947 2.3631,4.941 8.2816,7.1565 13.4122,5.01624 z"
     id="path28"
     style="stroke-width:2.10943" />
  <path
     fill="#255588"
     d="m 910.84457,196.85027 1.81172,0.0732 c 9.99739,0.49534 12.63302,0.63539 18.98584,7.52435 1.92236,11.00229 -1.82031,18.53083 -13.62097,20.92608 -19.11569,-4.75497 -60.9344,11.05872 -83.03056,17.44398 -22.05584,42.42486 -41.52277,115.16243 -67.21255,152.32023 -6.39751,9.25078 -91.96369,59.59712 -109.61673,70.67674 -4.79438,25.26303 -12.93331,59.88764 -15.01331,84.74729 -1.26032,15.06962 39.83871,25.85036 3.00814,56.07112 -41.32468,10.58008 -60.09125,-30.07864 -19.34769,-52.80847 7.08935,-26.59444 13.87641,-67.53951 19.38815,-95.28559 28.77259,-21.13717 80.80586,-51.7864 112.86345,-72.04574 21.68101,-50.74136 42.91076,-101.66874 63.68911,-152.7717 26.02631,-10.58218 54.50922,-13.49996 79.54336,-25.87543 2.12469,-1.05133 7.09157,-8.69691 8.55204,-10.99602 z M 636.1928,593.69132 c 6.15692,-2.04622 9.59302,-8.47536 7.81318,-14.6119 -1.78189,-6.13653 -8.15381,-9.82137 -14.48313,-8.37503 -4.38135,0.99907 -7.843,4.2868 -9.00965,8.5506 -1.16666,4.26381 0.15328,8.81187 3.43397,11.83206 3.27855,3.02019 7.98776,4.02135 12.24563,2.60427 z"
     id="path29"
     style="stroke-width:2.10943" />
  <path
     fill="#255588"
     d="m 1370.8519,280.90574 c 8.1539,0.92591 56.9917,28.4358 70.8936,35.0447 3.5127,-2.81954 7.0255,-6.76983 11.0279,-8.35412 54.8626,-21.72242 48.5184,72.56409 -2.789,44.30176 -6.9828,-3.8416 -7.8983,-16.90892 -13.9445,-22.09655 -10.006,-8.57359 -23.3331,-13.66715 -35.0636,-19.68037 -9.5163,-4.76334 -18.6707,-9.59357 -27.889,-14.68713 -58.0986,24.69453 -114.4089,56.25295 -172.2947,82.6739 -24.0569,11.62096 -45.3037,21.41935 -70.3186,30.76628 -14.4768,57.54254 -81.3679,14.39034 -47.4114,-21.27931 13.8167,-14.51993 32.2534,-4.27634 43.8348,7.74382 79.3879,-31.06307 164.4175,-79.70389 243.9545,-114.43298 z M 1104.3733,420.3823 c 6.408,-1.77449 10.1975,-8.26635 8.5156,-14.59936 -1.6819,-6.33299 -8.2177,-10.17878 -14.6896,-8.64883 -4.3217,1.0158 -7.7281,4.23664 -8.9203,8.4231 -1.2134,4.18439 -0.022,8.6802 3.1083,11.75473 3.1508,3.07454 7.728,4.24918 11.986,3.07036 z m 364.2181,-79.7854 c 3.8745,-1.15373 6.7273,-4.37875 7.3873,-8.30605 0.6386,-3.9273 -1.0431,-7.87341 -4.3643,-10.16833 -3.2999,-2.29494 -7.6641,-2.5353 -11.2195,-0.62286 -4.7475,2.56455 -6.77,8.24963 -4.6623,13.16763 2.1076,4.918 7.6428,7.47838 12.8588,5.92961 z"
     id="path30"
     style="stroke-width:2.10943" />
  <path
     fill="#255588"
     d="m 1717.3787,1221.2564 c 16.4566,0.9761 31.4869,11.042 29.656,29.6774 -1.2774,25.3904 -27.2929,16.4198 -33.9778,26.145 -51.0306,74.2572 -104.2114,133.6118 -175.6371,190.2116 11.6665,30.432 -5.6629,44.791 -34.3397,48.6576 -13.1782,-2.4872 -23.6738,-7.5244 -28.5703,-20.6501 -3.2573,-8.6531 -2.7889,-18.2258 1.2986,-26.5026 4.1088,-8.5067 11.6666,-14.9232 20.821,-17.724 12.4116,-3.7622 22.6732,-0.627 33.3817,5.4343 3.4914,-2.5917 6.8977,-5.2671 10.2614,-8.026 53.1596,-44.3101 100.2728,-95.1393 140.2117,-151.2543 3.5341,-5.0226 18.0746,-25.1125 19.0327,-29.4996 5.7481,-26.2789 -15.009,-27.8046 17.8618,-46.4693 z m -204.0797,276.1315 c 5.7055,-2.529 9.5375,-7.9215 9.9847,-14.0454 0.4683,-6.124 -2.5122,-11.9972 -7.7706,-15.3205 -5.2799,-3.3233 -11.9646,-3.5531 -17.436,-0.6061 -8.0474,4.3265 -11.1769,14.1291 -7.0894,22.176 4.0875,8.0677 13.9446,11.5164 22.3113,7.796 z"
     id="path31"
     style="stroke-width:2.10943" />
  <path
     fill="#255588"
     d="m 958.56674,1330.4788 c 16.88881,-0.1504 32.58978,3.2229 36.37918,22.1446 1.57547,7.7354 -0.10627,15.7635 -4.6411,22.2721 -11.07677,15.6925 -28.06994,13.6756 -42.06982,3.3399 -19.92038,9.926 -35.9534,18.3512 -55.17345,29.55 -18.80708,-10.3084 -41.30137,-23.6935 -61.23033,-30.7518 -68.40692,14.9757 -151.13732,38.8404 -220.22548,57.0452 -17.65952,-16.8463 -39.5918,-38.8445 -58.2285,-53.7407 -9.16718,-5.3172 -12.33504,3.3212 -23.51833,-10.1788 -1.52432,-8.9393 -1.95224,-4.6609 1.66695,-13.2742 7.28096,-5.4614 3.2743,-3.8457 12.55432,-4.8219 6.77427,1.8707 62.15,58.4184 71.9282,67.8656 72.18148,-20.366 144.68873,-39.6116 217.49409,-57.7202 14.27238,5.29 41.38857,21.8353 57.68346,29.6962 7.64284,-4.1761 41.12464,-18.8549 44.69059,-22.7592 13.45911,-14.7393 -5.7822,-21.4841 22.69022,-38.6668 z m 12.88222,38.5247 c 6.06315,-2.0483 9.44598,-8.3834 7.71301,-14.4426 -1.73283,-6.0612 -7.97924,-9.742 -14.24036,-8.3939 -4.38564,0.9428 -7.87924,4.1928 -9.07347,8.4441 -1.19438,4.2491 0.10627,8.7972 3.3786,11.8153 3.27206,3.0202 7.97706,4.011 12.22222,2.5771 z"
     id="path32"
     style="stroke-width:2.10943" />
  <path
     fill="#255588"
     d="m 1065.3285,1336.5318 c 51.4564,-1.0263 45.7934,70.3966 -8.8776,51.5565 -5.7481,-1.9795 -105.73137,72.4093 -117.35328,80.4144 -47.62421,-8.8411 -75.62397,-21.5071 -118.38159,-41.1332 -49.91281,11.7882 -116.40377,30.5783 -165.548,45.1254 -8.45189,2.5708 -20.12911,6.6674 -28.62356,7.6288 -4.93275,-4.013 -3.09335,-1.4421 -4.458,-8.6948 6.32507,-9.1964 59.97634,-20.8801 74.54044,-24.8304 l 124.70021,-34.4657 c 40.43263,19.9394 68.73256,31.2469 112.60783,42.5753 33.4626,-21.1936 68.03645,-49.1801 100.63045,-71.8577 25.6112,-17.8076 -4.5984,-26.6195 30.7631,-46.3186 z m 11.5602,38.0879 c 4.0023,-1.5363 6.8125,-5.1501 7.2597,-9.3616 0.447,-4.2116 -1.5329,-8.3165 -5.1521,-10.6282 -3.6192,-2.3137 -8.2389,-2.4496 -11.9859,-0.3511 -5.2372,2.9302 -7.281,9.3302 -4.6837,14.6725 2.576,5.3401 8.9416,7.8128 14.562,5.6684 z"
     id="path33"
     style="stroke-width:2.10943" />
  <path
     fill="#255588"
     d="m 204.82381,1219.9961 c 34.99969,-4.8407 53.57464,21.4361 32.62805,50.6348 47.04732,88.3193 90.17315,154.983 164.50704,226.0045 29.78805,28.4673 60.24459,48.4904 90.59468,73.9269 0.96653,6.7719 -0.26399,5.8314 -4.69217,13.4185 -123.54207,-82.5172 -195.6427,-181.1281 -265.30357,-307.3053 -36.37285,-1.9313 -52.03755,-33.6799 -17.73403,-56.6794 z m 14.07865,39.9961 c 4.6645,-0.9739 8.41568,-4.3703 9.78032,-8.8536 1.36677,-4.4854 0.12985,-9.3449 -3.22321,-12.6744 -3.35307,-3.3274 -8.29007,-4.594 -12.87366,-3.3003 -6.75085,1.9042 -10.75325,8.7158 -9.05223,15.4083 1.70314,6.6903 8.49871,10.856 15.36878,9.42 z"
     id="path34"
     style="stroke-width:2.10943" />
  <path
     fill="#255588"
     d="m 1331.786,240.69638 c 2.9592,0.10037 5.0881,0.89247 8.0473,1.63865 3.449,4.96189 2.938,2.34509 1.8735,8.04479 -17.1166,16.87129 -174.4874,88.10818 -206.8259,101.39285 -23.9293,-6.21387 -41.7697,-10.94795 -66.4867,-12.5615 -9.197,7.16904 -105.33964,99.61209 -104.25181,104.60325 6.72955,30.9084 0.51094,45.61642 -37.4948,41.65151 -17.78084,-13.51459 -22.20053,-26.538 -9.31191,-45.60181 7.4683,-11.04617 29.82416,-3.90222 34.39932,-7.55362 38.25058,-30.52173 73.9315,-81.31326 114.3174,-107.75093 27.1865,3.14769 40.8117,6.67577 66.9975,13.69643 18.5218,-6.80956 37.7886,-17.24333 55.991,-25.10629 50.4557,-21.77049 94.9718,-45.87352 142.7451,-72.45333 z m -389.15867,230.9498 c 6.66143,-1.90199 10.54253,-8.69272 8.72862,-15.26608 -1.81376,-6.57337 -8.65831,-10.50902 -15.38568,-8.84949 -4.46439,1.10148 -7.97502,4.48327 -9.18002,8.8453 -1.205,4.35996 0.0804,9.02088 3.36375,12.18737 3.28487,3.16651 8.05377,4.34533 12.47333,3.0829 z"
     id="path35"
     style="stroke-width:2.10943" />
  <path
     fill="#255588"
     d="m 719.80027,339.38673 c 8.59033,-36.56212 11.32596,-62.25989 45.59122,-85.36386 3.9108,-2.63771 19.96507,-36.53286 31.11854,-11.36179 -4.28549,18.21105 -41.08623,34.64968 -47.16219,46.26854 -7.75361,14.82927 -11.97533,41.38399 -19.99068,60.32448 -18.56864,15.79279 -54.30485,36.28204 -75.60709,48.77248 -23.06695,-5.93587 -48.55455,-16.95697 -71.87278,-23.49063 -10.42539,-2.92195 -10.31895,-3.76844 -18.12361,0.22782 -15.77541,14.85853 -31.22935,30.0431 -46.3533,45.5412 -6.58055,6.66951 -49.85752,48.40045 -46.9792,54.09806 27.38022,54.19212 -61.36868,53.2035 -41.56745,3.56362 6.44429,-16.15438 21.99615,-8.46909 29.74548,-15.84087 31.1165,-29.58954 68.4282,-78.01299 102.91269,-101.86103 9.9698,-6.89315 77.38039,18.81926 90.28598,22.70267 24.28693,-13.89081 45.85295,-26.52756 68.00239,-43.58069 z M 453.25771,499.87925 c 3.42759,-1.23524 5.86096,-4.25543 6.29313,-7.81697 0.43217,-3.56152 -1.20711,-7.05826 -4.24297,-9.05222 -3.03799,-1.99395 -6.95736,-2.14444 -10.14224,-0.39085 -4.41755,2.4287 -6.19095,7.78354 -4.07266,12.29815 2.11616,4.51671 7.41082,6.67578 12.16474,4.96189 z"
     id="path36"
     style="stroke-width:2.10943" />
  <path
     fill="#255588"
     d="m 320.91462,1223.775 c 29.45807,6.2097 33.63503,24.9495 22.81578,50.2147 45.31225,69.8574 74.62982,105.4496 133.41821,163.8303 41.9975,-16.3863 64.12564,27.6312 26.32428,49.0547 -46.37671,-0.5226 -27.06728,-31.0798 -34.52493,-37.8935 -57.37692,-52.4657 -95.02712,-104.8624 -137.90175,-168.554 -52.87209,-0.5476 -48.59931,-45.7878 -10.13159,-56.6522 z m 2.27369,41.0015 c 4.34303,-0.4849 8.07718,-3.2354 9.76969,-7.192 1.6925,-3.9545 1.07511,-8.4984 -1.6116,-11.8822 -2.68885,-3.3839 -7.02762,-5.077 -11.34722,-4.4289 -6.50604,0.9739 -11.01938,6.8826 -10.15077,13.2868 0.87074,6.404 6.80195,10.9478 13.3399,10.2163 z m 178.7262,204.2279 c 4.89867,-3.1978 6.33144,-9.6354 3.2381,-14.5681 -3.09333,-4.9117 -9.59935,-6.542 -14.71519,-3.6785 -3.47016,1.9438 -5.58207,5.6014 -5.5118,9.51 0.0723,3.9293 2.31839,7.5035 5.85669,9.3218 3.53829,1.8184 7.8068,1.5885 11.1322,-0.5852 z"
     id="path37"
     style="stroke-width:2.10943" />
  <path
     fill="#255588"
     d="m 645.54738,1517.7873 c 19.69257,4.5983 21.15522,7.5661 24.15055,27.2131 75.60491,45.4806 181.01912,73.049 269.03986,78.1071 1.04749,0.042 17.02723,-27.2131 39.04901,-15.3204 20.33131,10.9729 20.69319,25.4782 12.3691,44.3101 -20.86365,20.8801 -43.57076,13.8782 -53.05952,-13.1259 -58.65424,-9.5517 -115.78425,-16.3445 -172.22224,-35.8452 -26.90336,-9.1547 -53.70235,-19.626 -79.38368,-31.7277 -18.58566,-8.7367 -78.21286,-29.345 -39.94308,-53.6111 z m 326.87877,127.1825 c 3.92361,-2.3408 6.23987,-6.5837 6.03972,-11.0775 -0.20015,-4.4937 -2.88252,-8.5275 -6.99565,-10.534 -4.11531,-1.9857 -9.00753,-1.6094 -12.763,0.9823 -5.54159,3.804 -7.00206,11.2657 -3.3019,16.8253 3.7022,5.5597 11.23005,7.2526 17.02083,3.8039 z"
     id="path38"
     style="stroke-width:2.10943" />
  <path
     fill="#255588"
     d="m 1778.3726,1202.6169 c 38.6189,5.3611 44.1967,44.772 3.9386,51.4353 -0.3833,0.06 -20.2888,35.7533 -22.4177,39.4799 -16.329,28.881 -34.7656,56.579 -55.1182,82.885 -21.1403,26.9999 -43.9199,52.7082 -68.2536,76.9742 -24.0144,23.8063 -56.3742,46.7556 -74.1082,72.8609 -4.7262,6.9809 -1.4051,4.6191 -9.3886,10.8476 -12.646,-2.0901 -17.883,-6.8137 -17.1166,-19.6469 3.3636,-5.0162 4.4281,-7.817 11.411,-9.7398 15.9458,-4.3684 35.0636,-24.0781 48.561,-35.7617 74.5979,-64.7722 125.3517,-138.0825 173.0824,-223.0826 -18.0533,-20.0964 -14.2852,-34.4637 9.4099,-46.2519 z m 7.3661,34.1022 c 4.8966,-1.1705 8.0049,-5.9089 7.0468,-10.7683 -0.958,-4.8616 -5.6204,-8.1347 -10.6021,-7.4408 -3.4702,0.4807 -6.3655,2.7883 -7.5577,6.0049 -1.1922,3.2187 -0.4897,6.8221 1.8308,9.3741 2.3206,2.5541 5.8972,3.641 9.2822,2.8301 z"
     id="path40"
     style="stroke-width:2.10943" />
  <path
     fill="#255588"
     d="m 1626.7925,1240.3496 c 3.2572,-0.301 6.5358,-0.3868 9.8144,-0.2551 8.9841,0.3532 15.7328,4.1551 21.6086,10.9062 3.7469,4.2554 5.3863,9.9217 4.4708,15.4792 -4.5133,28.1934 -25.6537,17.7115 -31.9554,22.6421 -28.9321,22.6609 -58.652,71.7301 -89.2448,91.6467 -19.5011,-2.1612 -48.0714,-5.5973 -66.5931,-9.9823 l -53.1169,44.586 c -6.7913,28.279 -12.6672,59.6096 -18.6282,88.265 -1.8097,7.7333 -1.2348,9.5935 -9.2822,11.7881 l -2.5972,-2.6545 c -3.4277,-17.1179 14.0935,-85.8404 19.2243,-106.6577 14.9025,-12.641 45.8998,-39.1581 61.4409,-48.3315 22.5881,3.2334 43.4516,6.2284 65.848,10.6783 20.0759,-22.1697 41.8975,-47.485 62.5055,-68.9085 32.147,-33.4061 -6.5784,-32.6056 26.5053,-59.202 z m 13.6464,32.7476 c 4.9178,-2.0462 7.2171,-7.6288 5.1308,-12.4612 -2.0864,-4.8344 -7.7706,-7.0833 -12.6885,-5.0226 -4.9178,2.0547 -7.1958,7.6248 -5.1094,12.4488 2.0863,4.8218 7.7493,7.075 12.6671,5.035 z"
     id="path41"
     style="stroke-width:2.10943" />
  <path
     fill="#255588"
     d="m 978.68087,190.92901 c 18.56428,2.08801 29.54963,9.48906 34.33983,27.29671 8.5156,31.6065 -35.4767,27.49945 -51.72677,30.296 -20.63365,3.549 -42.17854,10.2394 -61.58376,15.36433 -16.40975,21.16227 -38.18245,54.50772 -50.37906,77.89386 -4.66658,8.94771 19.14975,18.60189 -9.32472,41.15825 -19.42443,4.92636 -35.52979,-1.36693 -41.39933,-23.82088 0.20233,-22.76955 29.04086,-18.28002 41.21403,-33.48131 17.76599,-22.18223 33.57977,-54.35515 51.98859,-73.55481 l 66.47816,-17.03849 c -8.66268,-22.71313 -0.57062,-34.37797 20.39303,-44.11366 z m 10.87893,39.91465 c 5.36487,-3.83952 6.62096,-11.17786 2.83142,-16.52434 -3.78953,-5.34857 -11.228,-6.74893 -16.76114,-3.15605 -3.69361,2.39735 -5.77579,6.57337 -5.43721,10.91033 0.3364,4.33487 3.04002,8.15347 7.06159,9.97395 4.02376,1.82048 8.72863,1.36065 12.30534,-1.20389 z M 832.78715,368.11725 c 3.37003,-1.45053 5.65658,-4.60031 5.95252,-8.19946 0.29594,-3.60124 -1.44766,-7.07081 -4.53674,-9.03132 -3.09125,-1.96261 -7.02766,-2.09846 -10.25081,-0.35532 -4.68375,2.53112 -6.50828,8.23082 -4.14297,12.93981 2.36313,4.7069 8.08143,6.75312 12.978,4.64629 z"
     id="path42"
     style="stroke-width:2.10943" />
  <path
     fill="#255588"
     d="m 1315.9255,1376.0012 c 45.921,2.4872 40.7052,45.3698 1.1921,52.497 -10.4531,16.5955 -21.6086,36.5768 -30.8269,53.7782 -18.6282,34.8003 -30.8909,36.8694 -65.1241,46.7557 -5.2585,24.9767 -14.5832,32.8981 -40.3647,28.3626 -21.6938,-14.5262 -23.2692,-44.6654 4.556,-52.6496 12.4755,-3.5741 21.7577,4.3474 31.7424,11.2029 15.9669,-4.6401 24.5466,-7.0227 39.3853,-14.0455 15.3922,-22.2386 31.1037,-53.9036 47.8797,-79.382 -14.0084,-21.3608 -9.8569,-34.1878 11.5602,-46.5193 z m -119.9868,167.5362 c 4.492,-1.4631 7.728,-5.3299 8.3241,-9.9489 0.6173,-4.5983 -1.5116,-9.1338 -5.4713,-11.6836 -3.9598,-2.55 -9.048,-2.6545 -13.1142,-0.2718 -5.4076,3.177 -7.5152,9.8444 -4.8754,15.4667 2.6186,5.6433 9.1544,8.4023 15.1368,6.4376 z m 128.8857,-132.8051 c 3.5341,-0.9614 6.2591,-3.7203 7.0894,-7.2316 0.8302,-3.5094 -0.362,-7.1817 -3.0871,-9.5707 -2.7462,-2.3911 -6.5997,-3.1141 -10.0484,-1.8873 -5.0457,1.7934 -7.7494,7.1795 -6.1314,12.2103 1.6392,5.0163 7.0042,7.8798 12.1775,6.4793 z"
     id="path43"
     style="stroke-width:2.10943" />
  <path
     fill="#fefdfe"
     fill-opacity="0.00784314"
     d="m 1318.7783,1392.0427 c 3.4487,-1.2268 7.3022,-0.5038 10.0484,1.8873 2.7251,2.389 3.9173,6.0613 3.0871,9.5707 -0.8303,3.5113 -3.5553,6.2702 -7.0894,7.2316 -5.1733,1.4005 -10.5383,-1.463 -12.1775,-6.4793 -1.618,-5.0308 1.0857,-10.4169 6.1314,-12.2103 z"
     id="path44"
     style="stroke-width:2.10943" />
  <path
     fill="#255588"
     d="m 964.40849,64.54275 c 33.79477,-2.746396 109.20161,-1.019976 143.94591,0.581043 9.7505,11.669032 31.5933,37.335457 32.9558,51.370477 l -2.8101,1.84975 c -19.203,-8.42102 -26.1646,-22.47277 -38.0015,-38.681485 -47.1772,-4.316063 -147.35858,-3.074545 -193.27326,4.182284 -38.83822,2.547838 -86.51775,15.489739 -124.21693,24.044511 -19.4499,4.41429 -35.24448,18.35944 -47.83935,20.13185 -9.69722,-3.92939 -13.77847,-11.39732 -9.00752,-20.98461 9.98894,-5.9338 16.51425,-1.35856 27.14179,-4.59404 70.84881,-21.571928 137.44836,-31.677558 211.10516,-37.89978 z"
     id="path45"
     style="stroke-width:2.10943" />
  <path
     fill="#255588"
     d="m 365.97991,1382.817 c 25.92617,5.545 13.89768,16.5285 18.09594,22.2094 31.653,42.7007 78.22983,78.9012 120.16559,112.1339 10.10604,8.005 32.4918,-11.5582 48.88672,4.6818 16.00107,15.843 12.95243,31.5605 -1.31569,47.069 -30.18403,13.8783 -46.52361,-2.9261 -46.67262,-32.5009 -43.72194,-34.1732 -84.18234,-67.6567 -121.88152,-108.3091 -7.70674,-8.3186 -27.09069,-5.2043 -31.98723,-19.4798 -5.04558,-14.7142 2.56749,-20.1945 14.70881,-25.8043 z"
     id="path46"
     style="stroke-width:2.10943" />
  <path
     fill="#255588"
     d="m 1185.7837,1394.3481 c 10.8362,2.9847 19.1816,5.5847 16.7121,18.14 -19.0114,21.1518 -86.7541,27.2966 -116.5592,31.3097 -39.3001,33.0445 -76.7694,67.552 -116.91249,99.844 -30.70148,-5.9359 -65.79908,-12.4569 -96.78574,-15.0904 -10.54456,-0.8779 -14.50864,2.3408 -23.55023,7.7333 -12.55426,-8.235 -16.81223,-14.7561 -5.55657,-26.6488 13.34207,-4.0757 29.60507,4.0548 44.12652,6.4584 25.91337,4.3266 51.86719,8.6321 77.68695,13.4602 33.06652,-28.3208 76.13496,-69.9346 111.21976,-94.0545 8.388,-5.7477 79.0047,-16.031 96.2704,-19.6678 4.1941,-10.5341 4.9178,-13.4393 13.3485,-21.4841 z"
     id="path47"
     style="stroke-width:2.10943" />
  <path
     fill="#255588"
     d="m 501.97199,251.64015 c 11.03213,2.01276 13.20153,1.27915 17.12515,11.82997 -0.70681,3.76428 -1.84791,7.57034 -4.93275,10.07011 -26.82031,21.73077 -52.67622,40.73605 -77.73804,64.69277 -68.46228,65.44313 -116.0099,135.87741 -158.876,219.28495 -5.10094,1.22062 -4.81991,0.98235 -9.96555,-0.36368 l -1.965,-4.37875 c 2.2226,-15.92447 18.69204,-40.19682 27.30572,-54.9153 54.39853,-92.94884 112.82714,-156.19736 197.00522,-224.32836 2.40143,-12.06824 2.25027,-15.30162 12.04125,-21.89171 z"
     id="path48"
     style="stroke-width:2.10943" />
  <path
     fill="#255588"
     d="m 1473.424,1140.1292 c 6.3016,0.081 11.8582,0.3198 17.9256,2.2761 7.3023,2.4183 13.3272,7.5913 16.7335,14.3799 8.5795,16.9695 -4.3857,31.3097 -19.6075,38.0733 -0.5323,34.543 0.064,69.0925 1.7883,103.5979 -27.3782,28.3438 -68.2536,51.9264 -78.4513,84.2456 -3.2147,-0.5246 -6.4506,-1.5529 -9.6014,-2.4307 -5.8333,-5.8732 -4.3857,-2.5249 -5.2585,-10.0262 6.8552,-17.8014 57.4174,-55.1223 75.0237,-73.628 l 2.0011,-2.1214 -0.7664,-98.8472 c -25.1001,-18.652 -31.9979,-39.0242 0.2129,-55.5193 z m 12.0924,37.4902 c 5.7055,-2.1173 8.7711,-8.1807 7.068,-13.918 -1.7244,-5.7373 -7.6216,-9.2174 -13.5825,-7.9905 -4.3005,0.8821 -7.7282,4.0527 -8.8777,8.2057 -1.1497,4.1509 0.1916,8.5862 3.4275,11.4768 3.2361,2.8906 7.8771,3.7517 11.9647,2.226 z"
     id="path50"
     style="stroke-width:2.10943" />
  <path
     fill="#255588"
     d="m 1552.8971,1115.0417 c 37.8951,-0.3721 49.519,28.8685 17.5638,51.6736 -1.107,34.5117 -3.7256,68.9608 -7.8346,103.253 22.652,18.0564 24.1848,39.5948 -5.7906,50.2628 -34.3184,-8.2288 -42.1103,-35.0322 -7.281,-50.9274 2.2141,-28.5863 8.239,-74.8737 3.9811,-101.7106 -1.107,-7.0123 -46.1553,-25.6832 -0.6387,-52.5514 z m 13.54,35.5255 c 3.598,-1.9209 5.7694,-5.6601 5.6205,-9.6667 -0.1281,-4.0068 -2.5548,-7.5933 -6.2591,-9.2739 -3.7044,-1.6804 -8.0687,-1.1641 -11.262,1.3314 -4.3857,3.4278 -5.365,9.579 -2.278,14.1647 3.1081,4.5856 9.2608,6.0821 14.1786,3.4445 z"
     id="path51"
     style="stroke-width:2.10943" />
  <path
     fill="#255588"
     d="m 550.21151,400.46991 c 14.07653,2.48095 29.87748,6.75312 31.79991,22.65879 -4.82417,13.57728 -15.20059,19.98971 -27.76557,27.07723 -7.35121,24.09051 -14.10632,63.93618 -17.70635,89.55662 10.76602,6.25567 15.92656,10.7034 19.76077,22.47275 7.27456,22.339 -30.85678,38.48293 -44.56925,24.7886 -19.67348,-19.64276 -13.55705,-35.15757 6.92968,-46.48802 8.17512,-14.31927 16.82285,-74.76915 21.0275,-95.29602 -7.68333,-8.66346 -9.65259,-11.65231 -11.52819,-23.21056 5.65445,-13.03595 9.7569,-14.26912 22.0515,-21.55939 z m -16.3055,176.03242 c 3.86614,-2.02948 6.3059,-5.95887 6.3719,-10.26448 0.0659,-4.30352 -2.25242,-8.30397 -6.05682,-10.44841 -3.80228,-2.14236 -8.4902,-2.09219 -12.2435,0.13586 -5.59485,3.31908 -7.47895,10.41288 -4.2451,15.99136 3.23386,5.58056 10.40624,7.61422 16.17352,4.58567 z"
     id="path52"
     style="stroke-width:2.10943" />
  <path
     fill="#255588"
     d="m 1326.2295,1534.4036 c 5.003,0.7942 4.8327,1.2122 8.9415,4.3265 1.2134,7.1064 1.7883,3.8249 -1.831,10.1579 -25.5683,18.7064 -127.6508,43.1187 -162.3312,47.9469 -9.3247,27.2967 -30.465,31.6023 -52.6485,13.9828 -16.9677,-40.5061 26.9736,-59.5678 50.2216,-27.6729 42.9831,-5.8106 122.1582,-24.6633 157.6476,-48.7412 z"
     id="path53"
     style="stroke-width:2.10943" />
  <path
     fill="#255588"
     d="m 1449.1116,1270.8315 c 7.1107,1.8685 7.8132,3.2083 10.155,9.2132 -3.5553,11.1611 -55.1607,51.4813 -67.913,62.2996 -4.3004,36.4889 -17.9469,95.8729 -25.4833,133.9545 -13.8807,14.9443 -34.7656,30.8917 -45.9212,48.1559 -4.5772,7.0854 -2.278,5.2462 -9.9421,11.0148 -7.8345,-4.3264 -10.0486,-5.058 -12.4755,-12.3734 3.3211,-11.9762 41.727,-39.3983 56.2889,-54.9696 8.1539,-44.0383 16.6483,-87.9911 25.4409,-131.8894 25.0149,-22.9661 46.0701,-40.8322 69.8503,-65.4056 z"
     id="path57"
     style="stroke-width:2.10943" />
  <path
     fill="#255588"
     d="m 877.00088,1459.0555 5.16471,0.021 c 5.58219,5.2671 3.72564,2.0901 4.94563,10.2833 -8.58815,15.2577 -33.05181,0.4807 -41.74419,8.2559 -36.19401,32.4174 -27.36742,22.5313 -72.10067,12.248 -7.85784,2.8424 -9.23738,3.1142 -17.59349,3.6994 -6.6444,-9.8234 -7.97284,-12.1016 -4.84971,-23.639 10.71707,-12.4988 20.78476,-3.6786 29.99666,5.1417 8.11345,7.7751 17.35723,9.2173 28.06789,11.9136 29.01306,-23.033 30.66088,-26.398 68.11317,-27.9238 z"
     id="path65"
     style="stroke-width:2.10943" />
  <path
     fill="#255588"
     d="m 1511.4893,299.33624 c 7.9197,0.33442 13.1355,0.22573 18.8199,5.41126 2.8102,7.1356 1.5328,6.04457 -0.3194,15.02156 9.1969,19.85177 41.9827,34.35497 36.8731,59.23343 -2.7462,0.28844 -16.3714,1.64491 -17.3082,-1.2645 -7.0467,-22.27002 -37.2563,-47.42856 -45.6656,-64.20161 1.2347,-8.49208 1.4263,-6.41242 7.6002,-14.20014 z"
     id="path66"
     style="stroke-width:2.10943" />
  <path
     fill="#255588"
     d="m 1161.5564,258.05885 c 11.6027,0.5497 50.477,2.11309 58.4818,6.32882 3.8321,5.96096 3.0018,2.69205 1.7032,10.31255 -11.1344,7.75845 -41.2374,-4.82395 -57.8645,-1.12447 -6.5571,10.86225 -16.5418,32.43418 -31.1676,31.64412 -5.5139,-15.68829 16.4567,-39.54051 28.8471,-47.16102 z"
     id="path67"
     style="stroke-width:2.10943" />
  <path
     fill="#255588"
     d="m 739.24391,359.68579 c 3.40626,1.77032 4.4558,3.01601 7.45127,5.48233 l 0.33422,5.12075 c 1.34766,-1.81212 -73.68458,57.24158 -73.70162,57.25202 -6.6572,-4.83231 -9.0969,-7.09798 -9.88675,-15.04663 0.88563,-1.72851 1.77126,-3.45702 2.65689,-5.18554 23.06913,-13.52503 51.57343,-33.84499 73.14599,-47.62293 z"
     id="path69"
     style="stroke-width:2.10943" />
  <path
     fill="url(#Gradient3)"
     d="m 517.40038,420.30497 c 15.12395,-15.4981 30.57789,-30.68267 46.3533,-45.5412 1.67121,10.76611 1.34335,15.13442 -7.83662,23.18339 l -6.64227,0.49118 0.93672,2.03157 c -12.2946,7.29027 -16.39705,8.52344 -22.0515,21.55939 l -1.12833,0.0941 -1.55838,12.32323 c -1.90752,-5.95051 -4.52825,-8.98325 -8.07292,-14.14161 z"
     id="path70"
     style="fill:url(#Gradient3);stroke-width:2.10943" />
  <path
     fill="#5a7795"
     fill-opacity="0.988235"
     d="m 1761.256,666.54594 c 26.931,3.08499 49.0719,5.2984 76.088,6.50021 -17.0739,3.7141 -37.7885,4.68182 -55.4586,6.05293 -9.6441,-1.36901 -14.6046,-5.48652 -20.6294,-12.55314 z"
     id="path71"
     style="stroke-width:2.10943" />
  <path
     fill="#000000"
     fill-opacity="0.0117647"
     d="m 780.73044,282.72203 4.24502,7.02065 -1.28797,4.74662 c -6.48689,2.06502 -4.1472,1.58638 -11.89005,-0.94891 l -1.18374,2.17997 -4.3622,-1.96887 -0.064,-1.77658 8.12612,-0.0397 z"
     id="path73"
     style="stroke-width:2.10943" />
  <path
     fill="url(#Gradient1)"
     d="m 1693.3217,1417.3371 1.4263,-3.6159 c -4.3217,-3.4278 -1.8947,-2.0273 -8.6647,-2.4245 l 1.2561,-3.1143 4.7687,-1.7974 c 5.5779,3.2814 7.4727,5.685 7.3024,12.1852 z"
     id="path74"
     style="fill:url(#Gradient1);stroke-width:2.10943" />
  <path
     fill="#416e78"
     fill-opacity="0.909804"
     d="m 1693.0023,776.54163 5.1946,0.56434 c -0.3619,7.15023 0,12.6451 -3.0017,19.12232 -2.7677,-6.34554 -2.1503,-12.73916 -2.1929,-19.68666 z"
     id="path75"
     style="stroke-width:2.10943" />
</svg>
